<?xml version="1.0" standalone="no"?>
<!DOCTYPE svg PUBLIC "-//W3C//DTD SVG 20010904//EN"
 "http://www.w3.org/TR/2001/REC-SVG-20010904/DTD/svg10.dtd">
<svg version="1.0" xmlns="http://www.w3.org/2000/svg" viewBox="0 0 1148.000000 831.000000"
 preserveAspectRatio="xMidYMid meet">

<g transform="translate(0.000000,831.000000) scale(0.100000,-0.100000)"
fill="#11543a" stroke="black" stroke-width="200">
<path d="M5380 6400 c-96 -10 -119 -15 -265 -51 -196 -49 -379 -132 -545 -248
-109 -76 -325 -280 -381 -361 -45 -66 -185 -307 -194 -335 -4 -11 -11 -29 -16
-40 -17 -40 -61 -182 -85 -280 -35 -141 -50 -355 -36 -498 20 -196 123 -539
193 -639 11 -14 19 -29 19 -32 0 -4 8 -19 19 -34 10 -15 40 -61 67 -102 26
-41 65 -95 86 -119 21 -24 53 -67 72 -95 19 -28 46 -64 60 -79 14 -15 26 -32
26 -37 0 -4 37 -55 83 -113 45 -58 102 -135 127 -172 25 -36 64 -90 87 -118
24 -29 68 -88 98 -132 93 -134 120 -170 182 -247 33 -40 65 -83 71 -95 7 -12
18 -27 24 -35 7 -7 31 -40 53 -73 22 -33 52 -73 68 -90 16 -16 44 -52 62 -80
40 -61 75 -94 140 -131 45 -26 59 -29 136 -29 82 0 89 2 135 34 72 50 113 91
142 141 14 25 42 64 61 86 38 43 112 144 146 198 11 17 54 74 95 126 41 52 80
102 85 112 41 68 114 168 141 195 19 17 47 54 64 83 27 45 139 199 263 360 23
30 57 77 75 104 19 28 47 65 63 83 37 43 184 264 214 323 61 120 82 184 146
440 21 85 24 118 24 310 0 190 -3 227 -23 315 -28 121 -107 367 -133 415 -140
257 -354 510 -522 617 -40 25 -81 54 -92 64 -27 25 -181 104 -275 142 -132 53
-285 91 -452 112 -130 16 -187 17 -308 5z m315 -604 c125 -21 360 -120 465
-198 68 -50 211 -205 252 -273 160 -267 206 -548 134 -810 -26 -94 -32 -95
-101 -24 -33 34 -88 90 -122 125 -35 34 -73 78 -85 96 -13 19 -69 81 -124 138
-56 58 -166 177 -245 265 -79 88 -161 177 -182 198 -20 20 -51 59 -67 86 -44
71 -102 91 -153 51 -14 -11 -42 -44 -63 -73 -21 -28 -56 -70 -78 -92 -23 -22
-104 -112 -181 -199 -77 -88 -183 -202 -235 -255 -52 -53 -104 -111 -115 -129
-11 -18 -42 -50 -68 -71 -26 -22 -63 -59 -82 -83 -65 -80 -106 -115 -124 -104
-5 3 -19 48 -32 99 -16 69 -22 124 -22 222 -1 183 25 290 115 469 63 126 88
162 185 261 87 90 113 110 216 167 152 82 255 119 389 138 61 9 263 6 323 -4z
m-147 -686 c6 -19 24 -98 42 -175 32 -145 46 -198 85 -325 20 -65 58 -219 71
-287 l4 -23 345 -2 344 -3 -41 -65 c-23 -36 -57 -78 -77 -95 -20 -16 -58 -53
-86 -81 -51 -53 -168 -127 -285 -181 -95 -44 -113 -50 -239 -74 -91 -17 -134
-20 -210 -16 -205 13 -306 38 -441 110 -183 96 -231 129 -269 182 -18 25 -36
45 -41 45 -16 0 -101 92 -121 131 -15 30 -17 41 -7 44 7 3 166 6 353 7 l339 3
8 35 c40 194 67 307 124 525 19 72 44 172 56 223 15 61 25 87 29 75 3 -10 11
-34 17 -53z"/>
<path d="M5790 1803 l-186 -3 4 -328 c2 -180 6 -329 7 -330 2 -2 43 -5 92 -5
l88 -2 0 130 0 130 125 1 125 0 0 80 0 79 -117 -4 -117 -3 -12 26 c-10 20 -10
32 0 52 l12 27 139 -7 140 -7 -6 48 c-4 26 -9 64 -13 83 -8 41 17 38 -281 33z"/>
<path d="M7318 1803 l-58 -4 0 -125 0 -125 -31 22 c-60 43 -167 34 -230 -18
-68 -58 -97 -177 -67 -276 17 -55 82 -122 133 -136 75 -21 151 -7 184 32 16
20 31 13 31 -14 0 -17 7 -19 73 -19 l73 0 0 288 c0 158 3 308 8 335 l7 47 -33
-2 c-18 -1 -59 -3 -90 -5z m-83 -378 c54 -53 16 -145 -60 -145 -49 0 -85 36
-85 85 0 49 36 85 85 85 25 0 44 -8 60 -25z"/>
<path d="M6185 1778 c-30 -16 -45 -39 -45 -69 0 -42 29 -70 80 -76 75 -8 119
45 94 112 -14 36 -88 56 -129 33z"/>
<path d="M7642 1607 c-48 -18 -99 -63 -124 -110 -18 -33 -23 -59 -23 -122 0
-111 34 -172 120 -218 56 -30 192 -31 249 -2 59 30 65 46 33 94 l-27 40 -42
-19 c-55 -25 -105 -25 -145 0 -54 32 -43 47 40 54 205 18 198 17 209 42 18 39
-6 124 -49 174 -62 72 -155 98 -241 67z m106 -123 c37 -25 28 -50 -22 -63 -69
-17 -86 -15 -86 12 0 30 35 67 63 67 12 0 33 -7 45 -16z"/>
<path d="M3350 1587 c-48 -15 -126 -95 -139 -143 -14 -50 -14 -108 0 -159 15
-56 91 -127 152 -145 50 -13 143 -8 178 11 22 11 25 53 8 112 -8 31 -14 37
-27 31 -9 -4 -35 -9 -58 -12 -57 -5 -96 28 -96 83 0 56 39 89 96 82 23 -3 48
-8 57 -11 13 -6 19 5 32 56 18 71 15 78 -42 97 -42 14 -114 13 -161 -2z"/>
<path d="M3747 1590 c-45 -14 -95 -58 -118 -102 -26 -51 -35 -139 -20 -194 37
-138 186 -206 285 -131 l34 26 6 -24 c6 -24 10 -25 81 -25 53 0 75 4 75 13 0
6 1 103 2 215 l3 203 -40 10 c-70 20 -100 17 -103 -8 -4 -28 -6 -28 -42 -1
-33 24 -116 33 -163 18z m159 -164 c56 -47 20 -146 -52 -146 -32 0 -80 25 -88
45 -35 92 67 165 140 101z"/>
<path d="M4270 1588 c-25 -5 -56 -12 -69 -14 -24 -5 -24 -6 -17 -87 3 -45 6
-142 6 -214 l0 -133 80 0 80 0 0 133 c0 72 4 137 8 143 10 16 48 34 70 34 40
0 47 -25 47 -169 l0 -136 83 -3 82 -3 0 135 c0 133 0 135 26 155 15 12 37 21
49 21 43 0 50 -23 50 -169 l0 -136 80 0 80 0 3 186 c2 178 2 187 -19 214 -57
71 -175 71 -250 -1 l-25 -24 -22 29 c-44 60 -143 66 -217 12 l-43 -31 -6 35
c-7 37 -8 38 -76 23z"/>
<path d="M5082 1586 c-29 -8 -55 -15 -57 -18 -3 -2 -1 -38 5 -79 5 -41 10
-170 10 -286 l0 -213 80 0 80 0 0 90 0 89 43 -19 c58 -27 113 -25 174 5 93 46
139 156 115 267 -18 77 -54 125 -115 154 -66 30 -115 30 -176 -1 l-49 -24 -6
24 c-7 29 -23 30 -104 11z m246 -152 c33 -23 45 -60 31 -101 -29 -88 -159 -62
-159 32 0 69 73 108 128 69z"/>
<path d="M6146 1590 c-2 -3 -1 -105 2 -227 l4 -223 79 0 79 0 0 158 c0 86 3
187 6 224 l7 66 -88 4 c-48 2 -88 1 -89 -2z"/>
<path d="M6462 1582 c-72 -14 -74 -16 -68 -41 4 -14 9 -110 13 -213 l6 -188
78 0 79 0 0 134 c0 145 5 159 56 172 60 15 76 -22 74 -171 -1 -60 -1 -116 -1
-122 1 -9 24 -13 81 -13 l80 0 0 185 c0 118 -4 193 -12 209 -6 14 -31 35 -55
47 -56 27 -108 21 -173 -19 -51 -32 -60 -29 -60 19 0 22 1 22 -98 1z"/>
<path d="M8052 1582 c-72 -14 -74 -15 -67 -41 3 -14 9 -110 12 -213 l5 -188
84 0 83 0 -6 118 c-7 143 -2 152 83 152 l54 0 2 60 c1 33 2 72 2 88 1 37 -29
40 -98 9 l-54 -25 -6 29 c-3 16 -9 28 -13 28 -5 -1 -41 -8 -81 -17z"/>
</g>
</svg>
