<svg id="svg" version="1.1" enable-background="new 0 0 264.6 86.9" viewBox="0 0 264.6 86.9" xmlns="http://www.w3.org/2000/svg" xmlns:xlink="http://www.w3.org/1999/xlink" width="400" height="289.54703832752614" viewBox="0, 0, 400,289.54703832752614"><g id="svgg" fill="#fff"><path id="path0" d="M185.518 66.888 C 182.841 67.241,176.225 68.871,173.613 69.820 C 172.323 70.290,171.184 70.673,171.083 70.673 C 170.982 70.673,170.148 71.051,169.230 71.513 C 168.311 71.975,166.256 72.999,164.663 73.790 C 163.070 74.580,161.115 75.736,160.319 76.359 C 159.522 76.982,158.479 77.740,158.001 78.042 C 150.926 82.527,141.948 94.191,138.589 103.261 C 134.289 114.875,133.189 126.858,135.587 135.972 C 135.920 137.238,136.244 138.541,136.309 138.869 C 137.115 142.987,139.842 149.827,142.026 153.211 C 142.847 154.483,143.910 156.184,144.388 156.992 C 145.289 158.515,146.403 160.060,149.240 163.723 C 150.156 164.906,150.905 165.999,150.905 166.153 C 150.905 166.307,151.368 166.881,151.934 167.430 C 152.500 167.978,153.257 168.949,153.616 169.586 C 153.975 170.224,155.312 172.049,156.587 173.642 C 157.863 175.235,159.485 177.386,160.192 178.421 C 160.899 179.457,161.543 180.369,161.623 180.449 C 161.703 180.529,162.241 181.311,162.817 182.187 C 163.394 183.063,164.456 184.398,165.176 185.154 C 165.897 185.910,166.766 187.065,167.107 187.721 C 167.449 188.376,168.088 189.387,168.527 189.967 C 168.967 190.547,169.743 191.567,170.253 192.235 C 170.763 192.903,171.180 193.564,171.180 193.705 C 171.180 193.846,171.520 194.277,171.936 194.663 C 172.351 195.050,173.275 196.180,173.989 197.176 C 174.702 198.172,175.381 198.986,175.497 198.986 C 175.613 198.986,175.926 199.410,176.193 199.928 C 176.886 201.269,179.915 205.485,181.130 206.798 C 181.695 207.409,182.612 208.606,183.168 209.458 C 186.916 215.207,193.154 216.997,197.773 213.649 C 200.519 211.660,201.558 210.505,202.931 207.918 C 203.071 207.654,203.666 206.920,204.252 206.287 C 204.838 205.655,205.895 204.242,206.600 203.148 C 207.306 202.054,208.176 200.898,208.534 200.579 C 208.892 200.261,209.444 199.494,209.759 198.876 C 210.075 198.257,211.296 196.595,212.472 195.181 C 214.567 192.664,215.797 190.949,217.794 187.760 C 218.342 186.886,219.607 185.280,220.607 184.190 C 221.606 183.101,222.708 181.652,223.056 180.970 C 223.404 180.288,224.811 178.252,226.182 176.445 C 227.553 174.637,229.106 172.551,229.633 171.807 C 230.160 171.064,231.304 169.544,232.174 168.429 C 233.044 167.314,234.226 165.684,234.800 164.808 C 235.375 163.932,236.209 162.824,236.654 162.346 C 237.098 161.868,238.572 159.783,239.928 157.712 C 241.285 155.641,242.677 153.584,243.022 153.141 C 245.722 149.680,249.586 137.272,250.259 129.906 C 251.148 120.172,248.512 106.012,244.489 98.914 C 243.948 97.958,243.187 96.589,242.799 95.873 C 242.411 95.156,241.866 94.308,241.588 93.990 C 241.311 93.671,240.458 92.433,239.692 91.238 C 238.174 88.867,235.974 86.165,234.269 84.576 C 233.670 84.019,232.045 82.479,230.657 81.156 C 229.269 79.832,227.343 78.287,226.377 77.723 C 225.410 77.159,224.061 76.242,223.378 75.685 C 222.058 74.608,215.555 71.277,213.613 70.682 C 212.976 70.487,211.673 70.027,210.717 69.659 C 204.713 67.351,192.332 65.989,185.518 66.888 M198.262 87.446 C 202.974 88.411,205.560 89.393,211.731 92.563 C 213.585 93.516,215.630 94.929,216.510 95.865 C 216.988 96.373,218.552 97.987,219.986 99.450 C 221.491 100.986,222.938 102.780,223.412 103.698 C 223.862 104.571,224.473 105.742,224.768 106.300 C 229.528 115.280,230.671 124.328,228.116 132.807 C 227.334 135.405,227.060 135.573,225.664 134.312 C 225.009 133.721,224.361 133.237,224.223 133.237 C 224.085 133.237,223.632 132.722,223.216 132.093 C 222.799 131.464,221.433 129.932,220.180 128.690 C 218.926 127.447,217.523 125.908,217.060 125.269 C 216.598 124.631,214.644 122.480,212.717 120.490 C 210.790 118.500,208.509 116.047,207.648 115.039 C 206.787 114.030,205.366 112.448,204.490 111.523 C 198.811 105.528,196.698 103.130,195.661 101.510 C 193.454 98.059,191.439 98.284,188.374 102.322 C 187.620 103.315,186.226 104.908,185.277 105.861 C 184.327 106.815,182.864 108.444,182.026 109.482 C 181.187 110.520,179.305 112.607,177.843 114.120 C 176.381 115.634,175.014 117.198,174.805 117.596 C 174.596 117.994,172.848 119.855,170.920 121.732 C 168.992 123.609,167.415 125.284,167.415 125.456 C 167.415 125.627,166.209 126.972,164.736 128.445 C 163.262 129.917,161.251 131.989,160.266 133.048 C 157.623 135.892,157.143 135.626,156.156 130.775 C 154.998 125.081,155.079 119.978,156.406 114.920 C 157.894 109.250,162.242 101.388,165.256 98.919 C 165.955 98.346,166.759 97.479,167.043 96.994 C 167.635 95.981,170.789 93.591,172.662 92.735 C 173.361 92.417,174.693 91.697,175.622 91.136 C 178.199 89.582,182.850 88.022,186.821 87.379 C 188.194 87.157,197.106 87.209,198.262 87.446 M194.648 116.582 C 194.813 117.219,195.192 118.849,195.489 120.203 C 196.090 122.944,196.969 126.198,197.992 129.471 C 198.746 131.886,200.000 136.847,200.280 138.523 L 200.461 139.609 212.468 139.609 C 224.995 139.609,225.388 139.649,224.018 140.786 C 223.767 140.995,223.249 141.760,222.867 142.487 C 222.009 144.123,221.262 144.958,219.406 146.356 C 218.610 146.956,217.753 147.802,217.502 148.235 C 216.670 149.674,206.748 155.829,205.261 155.829 C 205.035 155.829,204.393 156.020,203.835 156.253 C 200.299 157.730,190.168 158.286,185.228 157.273 C 178.770 155.950,168.744 150.771,167.011 147.864 C 166.726 147.386,165.895 146.539,165.163 145.981 C 162.537 143.980,159.986 140.380,160.819 139.852 C 161.022 139.723,166.558 139.616,173.122 139.613 L 185.057 139.609 185.239 138.523 C 185.339 137.925,185.791 135.873,186.242 133.961 C 186.693 132.049,187.146 129.964,187.249 129.327 C 187.352 128.689,187.957 126.343,188.593 124.113 C 189.230 121.883,189.924 119.211,190.135 118.175 C 190.518 116.300,192.206 109.734,192.519 108.907 C 192.609 108.668,193.057 110.036,193.515 111.948 C 193.973 113.860,194.483 115.945,194.648 116.582 M255.974 226.890 L 253.150 227.153 253.150 231.300 C 253.150 235.597,253.005 236.152,252.131 235.187 C 249.535 232.317,243.001 234.696,241.731 238.974 C 239.495 246.503,246.847 253.478,252.237 248.942 C 253.332 248.021,253.669 248.039,253.782 249.022 C 253.881 249.878,255.753 250.244,257.939 249.836 L 258.818 249.671 258.711 241.490 C 258.653 236.991,258.732 231.875,258.889 230.123 C 259.228 226.316,259.455 226.567,255.974 226.890 M201.200 227.009 L 195.159 227.094 195.381 228.174 C 195.503 228.768,195.615 233.881,195.629 239.537 L 195.655 249.819 198.841 249.819 L 202.028 249.819 201.919 245.693 C 201.777 240.300,201.477 240.614,206.648 240.740 L 210.717 240.839 210.717 238.233 L 210.717 235.626 206.619 235.735 C 202.021 235.857,201.883 235.796,201.883 233.653 C 201.883 231.985,202.204 231.896,207.430 232.126 L 212.091 232.331 211.917 231.082 C 211.822 230.395,211.659 229.149,211.555 228.313 L 211.366 226.792 209.304 226.858 C 208.169 226.895,204.523 226.963,201.200 227.009 M215.294 227.921 C 213.419 229.099,213.803 231.570,216.005 232.490 C 218.123 233.375,220.130 232.223,220.130 230.123 C 220.130 227.850,217.393 226.603,215.294 227.921 M266.958 233.563 C 262.177 234.904,259.744 240.757,261.975 245.551 C 264.170 250.265,271.149 251.753,275.557 248.446 C 276.077 248.056,276.069 247.990,275.335 246.541 C 274.485 244.864,274.207 244.777,272.494 245.651 C 270.781 246.525,268.526 246.318,267.336 245.179 C 265.741 243.650,266.010 243.544,272.524 243.125 C 276.650 242.860,277.215 242.214,276.216 238.896 C 274.967 234.746,270.964 232.440,266.958 233.563 M117.304 234.285 C 110.280 236.603,109.560 246.019,116.148 249.413 C 117.777 250.252,121.429 250.326,123.192 249.554 C 124.410 249.021,124.385 249.224,123.643 245.866 L 123.345 244.519 122.291 244.810 C 119.451 245.594,117.306 244.395,117.306 242.022 C 117.306 239.797,119.172 238.562,121.566 239.202 C 122.254 239.386,122.936 239.537,123.080 239.537 C 123.284 239.537,124.258 236.083,124.258 235.359 C 124.258 234.536,119.004 233.724,117.304 234.285 M130.374 234.468 C 125.387 236.023,123.986 244.144,128.010 248.168 C 130.242 250.401,133.097 250.784,135.402 249.161 C 136.858 248.135,137.292 248.157,137.292 249.257 C 137.292 249.951,137.338 249.964,139.737 249.964 C 142.709 249.964,142.590 250.137,142.487 245.957 C 142.441 244.098,142.396 242.187,142.387 241.709 C 142.378 241.231,142.466 239.514,142.583 237.894 L 142.795 234.949 140.783 234.491 C 138.154 233.893,138.181 233.889,137.823 234.917 C 137.543 235.720,137.470 235.760,137.031 235.362 C 135.615 234.082,132.818 233.706,130.374 234.468 M149.457 234.336 C 148.899 234.470,147.851 234.656,147.127 234.750 L 145.811 234.920 145.914 242.080 C 146.041 250.859,145.706 249.964,148.862 249.964 L 151.470 249.964 151.550 245.123 L 151.629 240.283 152.613 239.620 C 155.339 237.785,156.119 239.034,156.119 245.235 L 156.119 249.986 158.798 249.902 L 161.477 249.819 161.557 245.122 L 161.636 240.424 162.598 239.691 C 165.247 237.670,166.085 238.869,166.205 244.848 C 166.268 248.026,166.407 249.590,166.639 249.738 C 167.051 250.000,170.190 250.027,171.123 249.777 L 171.789 249.599 171.702 242.993 L 171.615 236.387 170.762 235.498 C 168.826 233.478,165.266 233.573,162.558 235.718 L 161.424 236.616 160.770 235.733 C 159.133 233.518,155.647 233.465,152.833 235.612 C 151.590 236.560,151.592 236.560,151.373 235.192 C 151.178 233.974,151.105 233.941,149.457 234.336 M177.263 234.427 C 175.042 234.909,174.981 234.970,175.260 236.417 C 175.392 237.097,175.505 241.462,175.512 246.116 C 175.527 255.931,175.251 255.177,178.837 255.177 C 180.382 255.177,181.036 255.071,181.055 254.815 C 181.070 254.616,181.060 253.262,181.033 251.805 C 180.975 248.745,181.161 248.480,182.699 249.437 C 186.092 251.546,191.250 249.092,192.516 244.765 C 194.504 237.974,188.810 232.020,182.911 234.720 C 180.874 235.653,180.845 235.653,180.620 234.757 C 180.411 233.924,179.841 233.868,177.263 234.427 M214.312 234.220 C 214.212 235.175,214.416 249.559,214.530 249.674 C 214.610 249.754,215.761 249.819,217.088 249.819 C 220.093 249.819,219.749 250.782,219.902 241.926 L 220.034 234.323 217.644 234.323 C 216.329 234.323,215.048 234.244,214.796 234.147 C 214.544 234.050,214.326 234.083,214.312 234.220 M225.253 234.568 C 222.898 234.985,222.715 235.066,222.893 235.613 C 223.000 235.939,223.154 239.180,223.236 242.815 L 223.385 249.425 224.094 249.694 C 224.889 249.997,227.659 250.058,228.362 249.788 C 228.751 249.639,228.820 248.963,228.820 245.279 C 228.820 240.620,228.954 240.071,230.262 239.395 C 232.875 238.044,233.454 239.037,233.454 244.870 L 233.454 249.602 234.359 249.783 C 235.514 250.014,237.903 250.017,238.499 249.788 C 239.179 249.527,239.183 237.338,238.504 236.024 C 237.283 233.664,233.446 233.430,230.361 235.527 C 228.831 236.567,228.862 236.573,228.641 235.192 C 228.539 234.555,228.310 234.052,228.131 234.075 C 227.952 234.098,226.657 234.320,225.253 234.568 M281.245 234.477 C 280.369 234.680,279.294 234.859,278.856 234.874 C 277.957 234.906,277.957 234.908,278.387 236.495 C 278.560 237.133,278.785 240.391,278.887 243.736 L 279.073 249.819 281.508 249.904 C 284.601 250.012,284.499 250.167,284.448 245.414 C 284.397 240.582,284.453 240.484,287.334 240.349 L 289.211 240.261 289.294 237.251 L 289.377 234.241 288.048 234.423 C 287.317 234.524,286.140 234.945,285.432 235.360 C 284.093 236.145,284.011 236.115,283.794 234.761 C 283.679 234.051,283.275 234.006,281.245 234.477 M270.261 238.066 C 271.558 239.363,271.380 239.656,268.944 240.230 C 266.575 240.789,266.184 240.712,266.184 239.687 C 266.184 237.564,268.742 236.547,270.261 238.066 M136.307 239.942 C 138.695 242.330,136.468 245.768,133.083 244.919 C 129.712 244.073,130.590 238.957,134.106 238.957 C 135.103 238.957,135.500 239.135,136.307 239.942 M186.126 239.942 C 187.604 241.420,187.410 243.968,185.762 244.718 C 183.871 245.580,181.887 244.882,181.317 243.155 C 180.256 239.939,183.773 237.589,186.126 239.942 M252.165 239.942 C 254.158 241.935,253.145 244.697,250.322 244.968 C 248.271 245.165,247.067 244.065,247.067 241.992 C 247.067 239.134,250.127 237.904,252.165 239.942 " stroke="none" fill="#112f27" fill-rule="evenodd"></path><path id="path1" d="M0.000 144.823 L 0.000 289.645 200.000 289.645 L 400.000 289.645 400.000 144.823 L 400.000 0.000 200.000 0.000 L 0.000 0.000 0.000 144.823 M196.324 66.315 C 197.390 66.467,199.435 66.742,200.869 66.926 C 207.788 67.816,220.352 72.506,223.606 75.415 C 224.004 75.771,224.852 76.392,225.489 76.794 C 226.126 77.197,227.234 77.897,227.951 78.350 C 229.868 79.561,237.773 87.650,238.957 89.612 C 239.515 90.536,240.461 91.929,241.061 92.709 C 242.038 93.981,244.641 98.334,245.550 100.217 C 246.361 101.898,248.536 108.672,248.936 110.764 C 249.174 112.010,249.500 113.186,249.660 113.379 C 250.773 114.721,251.075 128.292,250.108 133.526 C 248.617 141.589,245.696 150.044,243.252 153.367 C 242.783 154.004,241.462 155.961,240.316 157.715 C 239.171 159.468,237.419 161.921,236.423 163.164 C 235.427 164.408,234.613 165.524,234.613 165.646 C 234.613 165.767,234.022 166.638,233.300 167.582 C 232.579 168.525,230.852 170.783,229.463 172.598 C 228.074 174.413,226.741 176.181,226.503 176.528 C 226.264 176.874,225.665 177.670,225.172 178.296 C 224.680 178.923,223.786 180.282,223.185 181.318 C 222.585 182.353,221.606 183.657,221.011 184.214 C 220.415 184.772,218.833 186.857,217.494 188.849 C 215.341 192.052,212.313 196.089,211.228 197.203 C 211.019 197.418,210.639 198.004,210.383 198.507 C 210.128 199.009,209.379 200.072,208.719 200.869 C 208.059 201.665,207.136 202.904,206.668 203.621 C 206.200 204.337,205.278 205.576,204.619 206.372 C 203.960 207.169,203.055 208.407,202.609 209.124 C 201.080 211.577,198.796 213.654,196.049 215.087 C 192.388 216.997,185.073 214.019,182.918 209.742 C 182.648 209.206,181.884 208.181,181.221 207.463 C 180.044 206.190,177.155 202.279,176.165 200.618 C 175.678 199.802,174.927 198.821,172.918 196.376 C 171.920 195.162,170.765 193.583,169.216 191.319 C 168.783 190.686,168.206 189.942,167.934 189.665 C 167.662 189.389,167.166 188.627,166.832 187.972 C 166.497 187.317,165.538 186.035,164.700 185.123 C 163.862 184.211,162.574 182.559,161.837 181.450 C 159.500 177.931,158.123 176.030,155.974 173.353 C 154.823 171.919,153.701 170.411,153.480 170.002 C 153.258 169.592,152.520 168.550,151.838 167.685 C 147.172 161.760,144.414 157.901,143.056 155.395 C 142.710 154.757,142.339 154.171,142.232 154.091 C 142.124 154.012,141.545 153.099,140.947 152.064 C 139.453 149.482,139.319 149.219,139.319 148.869 C 139.319 148.701,138.912 147.692,138.413 146.626 C 137.444 144.552,136.684 142.087,135.815 138.196 C 135.517 136.861,135.129 135.595,134.953 135.383 C 134.105 134.362,133.878 118.444,134.670 115.568 C 134.824 115.011,135.167 113.642,135.432 112.527 C 136.020 110.057,138.160 103.080,138.453 102.679 C 138.569 102.520,138.826 101.889,139.023 101.277 C 139.731 99.081,146.803 87.473,147.433 87.473 C 147.567 87.473,147.719 87.310,147.770 87.111 C 147.902 86.602,155.152 79.691,156.658 78.639 C 157.342 78.161,158.832 77.082,159.967 76.241 C 161.804 74.883,170.426 70.384,171.194 70.384 C 171.358 70.384,171.983 70.134,172.582 69.828 C 173.596 69.311,177.149 68.314,181.608 67.297 C 186.114 66.269,192.844 65.820,196.324 66.315 M185.518 88.016 C 184.403 88.312,182.992 88.644,182.384 88.754 C 181.043 88.997,177.106 90.543,176.104 91.219 C 175.706 91.488,174.403 92.211,173.208 92.825 C 171.265 93.824,168.739 95.483,168.245 96.084 C 168.144 96.207,166.931 97.488,165.550 98.931 C 162.308 102.318,162.494 102.036,159.067 108.762 C 155.554 115.657,154.739 125.412,157.046 132.947 C 157.733 135.191,158.610 134.842,161.600 131.132 C 162.464 130.059,163.252 129.182,163.351 129.182 C 163.677 129.182,167.125 125.691,167.125 125.361 C 167.125 125.182,168.539 123.634,170.267 121.921 C 171.995 120.208,173.846 118.240,174.380 117.549 C 175.311 116.345,175.972 115.618,180.266 111.079 C 181.321 109.964,182.184 108.955,182.185 108.836 C 182.186 108.718,183.123 107.675,184.268 106.519 C 185.412 105.363,187.091 103.427,187.998 102.217 C 191.005 98.209,193.861 97.699,195.633 100.853 C 196.501 102.396,200.416 106.862,204.344 110.789 C 204.982 111.427,205.699 112.226,205.938 112.565 C 206.548 113.433,210.485 117.728,213.843 121.189 C 215.403 122.797,217.125 124.765,217.670 125.561 C 218.214 126.358,219.092 127.323,219.620 127.707 C 220.149 128.091,221.359 129.355,222.311 130.515 C 223.262 131.675,224.663 133.163,225.423 133.822 L 226.805 135.018 227.392 133.691 C 229.904 128.013,229.306 116.207,226.190 109.959 C 225.566 108.706,225.054 107.563,225.054 107.419 C 225.054 107.274,224.750 106.670,224.379 106.076 C 224.007 105.482,223.235 104.214,222.662 103.259 C 219.128 97.357,208.140 89.651,201.995 88.764 C 201.216 88.652,200.123 88.357,199.566 88.108 C 197.915 87.372,188.186 87.308,185.518 88.016 M191.925 112.560 C 191.654 113.935,191.255 115.405,191.038 115.825 C 190.821 116.246,190.550 117.240,190.437 118.034 C 190.325 118.829,189.673 121.434,188.989 123.823 C 188.305 126.213,187.532 129.341,187.271 130.775 C 187.009 132.209,186.554 134.294,186.258 135.409 C 185.963 136.524,185.633 137.980,185.526 138.645 C 185.265 140.252,186.076 140.154,172.882 140.178 C 166.470 140.190,161.182 140.242,161.130 140.294 C 160.638 140.786,162.897 143.726,165.135 145.506 C 165.872 146.093,166.847 147.108,167.300 147.763 C 168.186 149.040,169.216 149.807,172.496 151.629 C 173.643 152.266,174.762 152.926,174.981 153.094 C 180.824 157.583,196.059 158.873,204.779 155.619 C 208.406 154.265,216.765 149.318,217.075 148.342 C 217.242 147.815,219.067 145.981,219.423 145.981 C 219.886 145.981,221.695 143.933,222.493 142.505 C 222.983 141.629,223.587 140.682,223.835 140.400 C 224.265 139.910,223.747 139.889,212.341 139.922 C 205.772 139.942,200.322 139.882,200.230 139.790 C 200.137 139.698,199.881 138.573,199.659 137.290 C 199.437 136.007,198.684 133.038,197.985 130.693 C 197.285 128.349,196.435 125.322,196.095 123.968 C 195.755 122.614,195.273 120.725,195.025 119.770 C 194.776 118.816,194.333 116.926,194.040 115.570 C 193.417 112.687,192.805 110.450,192.577 110.222 C 192.489 110.133,192.195 111.185,191.925 112.560 M211.681 227.009 C 211.824 227.288,212.025 228.663,212.128 230.065 L 212.316 232.614 207.316 232.527 L 202.317 232.440 202.317 233.888 L 202.317 235.337 206.452 235.337 C 211.300 235.337,211.142 235.235,211.142 238.378 C 211.142 241.329,211.368 241.193,206.517 241.159 L 202.317 241.130 202.335 245.474 C 202.355 250.543,202.552 250.250,199.131 250.229 C 194.975 250.203,195.366 251.105,195.366 241.534 C 195.366 237.010,195.250 231.846,195.108 230.057 L 194.850 226.804 201.045 226.720 C 204.453 226.673,208.182 226.605,209.331 226.569 C 211.071 226.514,211.464 226.587,211.681 227.009 M259.088 238.233 L 259.088 249.963 256.269 249.964 C 253.487 249.964,253.448 249.954,253.265 249.223 L 253.079 248.482 252.463 249.059 C 250.580 250.821,246.091 250.671,243.782 248.767 C 240.270 245.873,239.941 239.160,243.156 235.986 C 245.432 233.738,249.501 233.042,251.602 234.540 C 252.948 235.501,252.938 235.531,252.822 231.064 L 252.715 226.937 254.308 226.767 C 255.185 226.673,256.618 226.576,257.495 226.550 L 259.088 226.502 259.088 238.233 M219.396 227.981 C 221.148 229.519,220.647 232.226,218.512 232.762 C 217.083 233.121,215.127 232.696,214.419 231.873 C 211.940 228.991,216.492 225.431,219.396 227.981 M272.493 233.911 C 274.998 235.159,276.651 237.780,276.719 240.611 C 276.774 242.867,276.580 242.972,271.613 243.355 C 266.598 243.742,266.316 243.850,267.422 244.958 C 268.420 245.959,271.118 246.083,272.916 245.212 C 274.314 244.534,274.575 244.660,275.578 246.503 L 276.411 248.034 275.637 248.699 C 273.046 250.929,266.436 250.751,263.662 248.377 C 256.361 242.127,263.969 229.664,272.493 233.911 M122.230 234.038 C 122.788 234.198,123.561 234.574,123.947 234.873 L 124.651 235.417 124.151 237.265 C 123.418 239.972,123.427 239.964,121.730 239.529 C 117.678 238.490,115.588 242.916,119.334 244.605 C 120.564 245.160,120.561 245.160,122.997 244.255 C 123.393 244.108,124.199 246.434,124.319 248.070 C 124.547 251.185,117.014 251.112,113.803 247.967 C 107.555 241.847,113.751 231.604,122.230 234.038 M135.961 234.468 C 137.608 235.344,137.520 235.340,137.634 234.540 C 137.762 233.634,138.663 233.576,141.102 234.317 L 143.138 234.935 142.894 236.729 C 142.760 237.716,142.688 241.078,142.734 244.200 L 142.817 249.878 140.851 250.064 C 137.450 250.385,137.298 250.358,136.953 249.367 L 136.643 248.480 136.026 249.058 C 133.903 251.046,129.656 250.557,127.476 248.073 C 121.632 241.417,128.455 230.477,135.961 234.468 M151.574 234.757 C 151.728 235.235,151.892 235.672,151.938 235.727 C 151.985 235.782,152.636 235.406,153.384 234.890 C 155.781 233.241,158.558 233.346,160.463 235.158 C 161.568 236.209,161.638 236.234,162.093 235.731 C 164.449 233.128,169.997 233.213,171.381 235.873 C 171.839 236.754,172.227 248.543,171.833 249.602 C 171.737 249.858,170.863 249.964,168.852 249.964 C 165.434 249.964,165.704 250.442,165.766 244.506 C 165.816 239.658,165.679 239.247,164.015 239.247 C 162.249 239.247,161.912 240.220,161.912 245.316 L 161.912 249.964 158.870 249.964 C 156.647 249.964,155.821 249.866,155.798 249.602 C 155.781 249.403,155.748 247.176,155.726 244.654 C 155.679 239.513,155.490 239.029,153.657 239.375 C 151.949 239.696,151.774 240.253,151.774 245.362 L 151.774 249.964 148.770 249.964 L 145.766 249.964 145.627 242.505 C 145.551 238.403,145.526 235.001,145.572 234.944 C 145.730 234.750,150.181 233.803,150.738 233.846 C 151.082 233.872,151.401 234.220,151.574 234.757 M180.854 234.468 C 181.030 234.786,181.192 235.088,181.216 235.138 C 181.239 235.188,181.930 234.877,182.752 234.448 C 187.763 231.827,193.570 236.460,193.124 242.723 C 192.714 248.467,187.023 252.030,182.222 249.548 L 181.270 249.055 181.321 251.754 C 181.349 253.239,181.360 254.621,181.345 254.825 C 181.324 255.108,180.606 255.178,178.349 255.115 L 175.380 255.033 175.212 245.619 C 175.120 240.442,174.945 235.927,174.825 235.586 C 174.631 235.038,174.767 234.914,176.006 234.518 C 178.927 233.585,180.360 233.570,180.854 234.468 M220.310 234.137 C 220.328 234.160,220.263 237.697,220.165 241.999 L 219.986 249.819 217.089 249.819 L 214.193 249.819 214.013 241.999 C 213.914 237.697,213.872 234.109,213.918 234.025 C 213.988 233.899,220.200 234.008,220.310 234.137 M228.772 234.613 C 228.932 235.809,229.245 235.848,230.878 234.873 C 233.805 233.126,237.224 233.581,238.662 235.907 C 239.224 236.816,239.254 237.243,239.180 243.345 L 239.102 249.819 236.206 249.819 L 233.309 249.819 233.164 244.977 C 232.999 239.444,232.841 239.026,231.046 239.362 C 229.380 239.675,229.269 240.007,229.109 245.156 L 228.965 249.819 226.068 249.819 L 223.172 249.819 222.995 243.447 C 222.898 239.942,222.721 236.602,222.601 236.025 L 222.383 234.975 224.660 234.486 C 225.912 234.217,227.067 233.947,227.227 233.888 C 227.990 233.601,228.680 233.924,228.772 234.613 M284.041 234.613 C 284.249 235.655,284.052 235.642,286.083 234.744 C 287.002 234.338,288.143 234.045,288.625 234.092 L 289.500 234.178 289.586 236.785 C 289.712 240.660,289.694 240.695,287.593 240.695 C 284.668 240.695,284.721 240.604,284.721 245.629 L 284.721 249.964 281.721 249.964 L 278.720 249.964 278.550 243.809 C 278.456 240.424,278.238 237.083,278.064 236.385 C 277.681 234.838,277.454 235.036,280.390 234.360 C 283.756 233.585,283.836 233.590,284.041 234.613 M267.263 238.016 C 266.614 238.734,266.148 240.059,266.474 240.261 C 267.117 240.658,270.529 239.780,270.529 239.217 C 270.529 237.802,268.224 236.955,267.263 238.016 M132.761 239.534 C 130.598 240.407,130.739 243.463,132.996 244.631 C 135.309 245.827,137.809 243.096,136.579 240.718 C 135.899 239.403,134.308 238.910,132.761 239.534 M182.547 239.601 C 181.773 239.975,181.159 241.761,181.432 242.849 C 182.033 245.242,185.290 245.712,186.400 243.565 C 187.758 240.940,185.209 238.318,182.547 239.601 M248.454 239.697 C 246.521 240.746,246.760 243.462,248.886 244.605 L 249.964 245.185 251.041 244.605 C 252.468 243.838,253.003 242.850,252.742 241.461 C 252.396 239.615,250.239 238.728,248.454 239.697 " stroke="none" fill="#fbfbfb" fill-rule="evenodd"></path><path id="path2" d="M191.103 66.253 C 191.945 66.312,193.248 66.311,194.000 66.252 C 194.751 66.192,194.062 66.144,192.469 66.145 C 190.876 66.146,190.261 66.194,191.103 66.253 M187.618 66.533 C 187.976 66.602,188.563 66.602,188.921 66.533 C 189.280 66.464,188.986 66.408,188.269 66.408 C 187.552 66.408,187.259 66.464,187.618 66.533 M198.769 66.818 C 199.048 66.891,199.504 66.891,199.783 66.818 C 200.062 66.745,199.833 66.686,199.276 66.686 C 198.718 66.686,198.490 66.745,198.769 66.818 M180.159 67.558 C 179.442 67.722,178.986 67.900,179.146 67.954 C 179.305 68.007,180.152 67.874,181.028 67.656 C 182.872 67.200,182.105 67.113,180.159 67.558 M202.752 67.408 C 203.150 67.480,204.183 67.722,205.047 67.945 C 205.912 68.169,206.676 68.293,206.747 68.223 C 206.817 68.152,206.501 68.013,206.044 67.912 C 205.587 67.811,204.836 67.610,204.374 67.463 C 203.912 67.317,203.195 67.215,202.781 67.237 L 202.028 67.277 202.752 67.408 M172.629 69.804 C 172.071 70.110,171.745 70.359,171.904 70.359 C 172.064 70.359,172.650 70.110,173.208 69.804 C 173.765 69.499,174.091 69.249,173.932 69.249 C 173.773 69.249,173.186 69.499,172.629 69.804 M211.151 69.660 C 211.550 69.887,212.006 70.074,212.165 70.074 C 212.324 70.074,212.129 69.887,211.731 69.660 C 211.332 69.432,210.876 69.246,210.717 69.246 C 210.558 69.246,210.753 69.432,211.151 69.660 M218.682 72.846 C 219.080 73.073,219.537 73.260,219.696 73.260 C 219.855 73.260,219.660 73.073,219.261 72.846 C 218.863 72.618,218.407 72.432,218.248 72.432 C 218.088 72.432,218.284 72.618,218.682 72.846 M161.690 75.019 C 160.735 75.656,159.775 76.403,159.557 76.679 C 159.339 76.954,159.699 76.759,160.357 76.246 C 161.016 75.732,162.124 74.987,162.819 74.589 C 163.515 74.192,163.936 73.865,163.755 73.863 C 163.574 73.861,162.645 74.381,161.690 75.019 M223.160 75.380 C 223.784 75.898,224.693 76.552,225.181 76.834 C 226.030 77.325,226.039 77.325,225.404 76.834 C 225.039 76.552,224.212 75.898,223.567 75.380 C 222.921 74.862,222.310 74.439,222.209 74.439 C 222.108 74.439,222.536 74.862,223.160 75.380 M226.213 77.454 C 226.213 77.540,226.602 77.811,227.078 78.057 C 227.554 78.303,228.433 78.920,229.033 79.428 L 230.123 80.350 229.320 79.472 C 228.562 78.643,226.213 77.117,226.213 77.454 M151.845 82.911 C 149.655 85.022,147.814 86.879,147.752 87.038 C 147.691 87.198,149.450 85.575,151.662 83.433 C 153.874 81.290,155.808 79.433,155.959 79.305 C 156.111 79.178,156.143 79.073,156.030 79.073 C 155.918 79.073,154.035 80.800,151.845 82.911 M230.271 80.290 C 230.269 80.402,231.543 81.770,233.101 83.331 C 234.660 84.892,236.570 86.886,237.345 87.762 C 238.121 88.639,238.618 89.095,238.450 88.776 C 238.093 88.100,230.276 79.989,230.271 80.290 M190.804 87.398 C 191.799 87.454,193.429 87.454,194.424 87.398 C 195.420 87.341,194.605 87.295,192.614 87.295 C 190.623 87.295,189.808 87.341,190.804 87.398 M183.997 88.082 C 181.125 88.875,181.097 88.886,182.452 88.709 C 183.924 88.517,186.385 87.796,185.518 87.811 C 185.199 87.817,184.515 87.939,183.997 88.082 M199.710 88.207 C 200.188 88.426,200.905 88.602,201.303 88.599 C 201.742 88.595,201.456 88.434,200.579 88.190 C 198.788 87.693,198.595 87.697,199.710 88.207 M145.138 90.587 C 144.426 91.628,144.382 91.751,144.959 91.093 C 145.725 90.219,146.382 89.211,146.185 89.211 C 146.127 89.211,145.656 89.830,145.138 90.587 M178.566 89.811 C 177.929 90.117,177.734 90.287,178.132 90.188 C 178.952 89.984,180.458 89.229,180.014 89.244 C 179.855 89.249,179.203 89.504,178.566 89.811 M205.358 89.823 C 207.130 90.638,207.965 90.957,207.965 90.818 C 207.965 90.642,204.758 89.210,204.382 89.217 C 204.202 89.221,204.642 89.493,205.358 89.823 M239.275 90.497 C 239.610 91.064,239.939 91.528,240.007 91.528 C 240.213 91.528,239.273 89.840,238.959 89.646 C 238.798 89.547,238.940 89.930,239.275 90.497 M174.299 91.918 C 171.421 93.513,171.004 93.943,173.655 92.582 C 175.541 91.614,177.028 90.678,176.684 90.677 C 176.604 90.676,175.531 91.235,174.299 91.918 M209.558 91.761 C 211.376 92.850,214.470 94.465,214.193 94.179 C 213.839 93.816,209.201 91.238,208.903 91.239 C 208.785 91.240,209.080 91.475,209.558 91.761 M241.712 93.990 C 242.872 95.602,243.193 95.901,242.547 94.767 C 242.245 94.239,241.746 93.587,241.438 93.319 C 241.112 93.035,241.227 93.316,241.712 93.990 M169.732 94.609 C 168.232 95.787,168.137 95.873,168.328 95.873 C 168.406 95.873,169.168 95.351,170.022 94.714 C 170.876 94.077,171.453 93.562,171.305 93.570 C 171.157 93.578,170.449 94.046,169.732 94.609 M217.799 97.689 C 219.623 99.557,221.170 101.086,221.237 101.086 C 221.437 101.086,216.020 95.482,215.222 94.864 C 214.815 94.549,215.975 95.820,217.799 97.689 M243.023 96.017 C 243.029 96.177,243.549 97.154,244.180 98.190 C 244.811 99.225,245.324 99.942,245.318 99.783 C 245.313 99.623,244.793 98.646,244.162 97.610 C 243.530 96.575,243.018 95.858,243.023 96.017 M165.291 98.890 C 162.991 101.290,161.316 103.403,161.715 103.403 C 161.797 103.403,162.131 102.972,162.457 102.445 C 162.782 101.918,164.040 100.517,165.253 99.331 C 167.045 97.578,168.360 96.037,167.932 96.192 C 167.887 96.209,166.698 97.423,165.291 98.890 M140.087 98.917 C 139.429 100.094,138.761 101.739,139.088 101.376 C 139.356 101.079,141.065 97.610,140.943 97.610 C 140.874 97.610,140.488 98.199,140.087 98.917 M191.004 99.225 C 190.695 99.476,190.633 99.581,190.866 99.459 C 191.100 99.337,191.752 99.147,192.315 99.036 C 193.333 98.837,193.333 98.835,192.452 98.802 C 191.965 98.784,191.313 98.974,191.004 99.225 M194.724 100.015 C 195.077 100.381,195.419 100.643,195.485 100.596 C 195.654 100.474,194.600 99.348,194.317 99.348 C 194.188 99.348,194.372 99.648,194.724 100.015 M246.086 102.349 C 246.501 103.584,246.891 104.545,246.952 104.484 C 247.103 104.334,245.897 100.722,245.582 100.377 C 245.444 100.226,245.671 101.113,246.086 102.349 M195.935 101.883 C 196.188 102.400,196.456 102.824,196.532 102.824 C 196.820 102.824,196.634 102.363,196.066 101.665 L 195.476 100.941 195.935 101.883 M187.816 102.462 C 187.151 103.352,187.123 103.444,187.663 102.972 C 188.292 102.423,189.004 101.376,188.748 101.376 C 188.682 101.376,188.262 101.865,187.816 102.462 M221.736 101.693 C 222.809 103.462,223.606 104.639,223.606 104.453 C 223.606 104.103,222.137 101.687,221.796 101.476 C 221.597 101.353,221.576 101.430,221.736 101.693 M138.144 103.302 C 137.983 103.725,137.895 104.198,137.946 104.353 C 137.998 104.509,138.186 104.163,138.363 103.585 C 138.736 102.371,138.576 102.165,138.144 103.302 M197.254 103.485 C 197.251 103.609,197.871 104.326,198.631 105.078 C 199.391 105.830,201.105 107.618,202.440 109.051 C 203.774 110.485,204.202 110.876,203.392 109.920 C 201.282 107.434,197.262 103.218,197.254 103.485 M160.058 106.298 C 159.624 107.096,159.331 107.748,159.407 107.748 C 159.601 107.748,161.074 105.076,160.949 104.951 C 160.893 104.895,160.492 105.501,160.058 106.298 M183.987 106.760 C 182.137 108.722,181.537 109.568,183.020 108.125 C 184.087 107.087,186.056 104.852,185.903 104.852 C 185.839 104.852,184.977 105.710,183.987 106.760 M247.692 106.734 C 247.691 106.894,247.866 107.480,248.081 108.038 C 248.296 108.595,248.476 108.856,248.480 108.617 C 248.485 108.378,248.310 107.791,248.092 107.314 C 247.873 106.836,247.693 106.575,247.692 106.734 M158.637 109.055 C 158.372 109.611,158.215 110.065,158.288 110.065 C 158.487 110.065,159.366 108.292,159.233 108.159 C 159.170 108.096,158.902 108.499,158.637 109.055 M136.029 109.836 C 135.931 110.201,135.863 110.760,135.877 111.079 C 135.890 111.398,136.021 111.150,136.167 110.528 C 136.449 109.325,136.329 108.719,136.029 109.836 M181.176 110.062 C 180.720 110.538,180.402 110.974,180.470 111.031 C 180.538 111.087,180.965 110.698,181.419 110.165 C 182.443 108.962,182.292 108.898,181.176 110.062 M192.324 109.614 C 192.324 109.843,192.438 110.101,192.576 110.186 C 192.714 110.272,192.914 110.884,193.020 111.546 C 193.126 112.208,193.285 112.677,193.374 112.588 C 193.607 112.355,192.857 109.196,192.568 109.196 C 192.434 109.196,192.324 109.384,192.324 109.614 M157.172 112.711 C 156.752 114.017,156.459 115.136,156.520 115.197 C 156.581 115.258,156.975 114.240,157.396 112.935 C 157.817 111.630,158.110 110.512,158.048 110.450 C 157.986 110.388,157.592 111.406,157.172 112.711 M227.064 111.708 C 227.231 112.055,227.512 113.009,227.688 113.828 C 227.863 114.648,228.062 115.264,228.130 115.196 C 228.361 114.965,227.627 112.156,227.194 111.618 C 226.785 111.109,226.777 111.115,227.064 111.708 M191.424 113.465 C 191.170 114.542,190.869 115.684,190.755 116.003 C 190.635 116.341,190.722 116.281,190.964 115.858 C 191.438 115.030,192.139 112.259,191.988 111.807 C 191.933 111.641,191.679 112.387,191.424 113.465 M205.561 112.323 C 205.845 112.848,206.464 113.630,206.936 114.061 L 207.794 114.844 206.938 113.824 C 206.468 113.262,205.849 112.480,205.563 112.086 C 205.063 111.395,205.063 111.404,205.561 112.323 M177.936 113.613 C 177.282 114.339,176.872 114.989,177.067 114.989 C 177.137 114.989,177.542 114.533,177.967 113.975 C 178.840 112.832,178.822 112.629,177.936 113.613 M134.835 114.627 C 134.724 114.906,134.587 116.177,134.532 117.451 L 134.430 119.768 134.663 117.587 C 134.790 116.388,134.987 115.117,135.099 114.763 C 135.340 114.004,135.127 113.894,134.835 114.627 M208.791 116.003 C 209.766 117.277,212.902 120.688,212.270 119.785 C 212.053 119.476,211.338 118.629,210.681 117.903 C 207.825 114.746,207.846 114.767,208.791 116.003 M249.989 116.172 C 250.003 116.875,250.123 118.103,250.256 118.899 C 250.434 119.966,250.456 119.661,250.341 117.741 C 250.176 115.007,249.946 113.978,249.989 116.172 M194.089 115.506 C 194.049 116.065,195.310 120.953,195.410 120.628 C 195.457 120.474,195.185 119.175,194.805 117.741 C 194.425 116.307,194.103 115.302,194.089 115.506 M174.254 117.724 C 173.835 118.273,172.060 120.142,170.309 121.879 C 168.558 123.615,167.125 125.115,167.125 125.212 C 167.125 125.487,173.594 118.969,174.499 117.783 C 174.942 117.202,175.239 116.727,175.159 116.727 C 175.080 116.727,174.672 117.176,174.254 117.724 M228.746 118.610 C 228.831 119.725,228.948 120.692,229.005 120.758 C 229.206 120.991,229.049 118.023,228.822 117.306 C 228.688 116.885,228.657 117.431,228.746 118.610 M190.041 118.710 C 190.022 119.084,189.800 120.103,189.546 120.976 C 189.292 121.849,189.142 122.620,189.212 122.690 C 189.435 122.913,190.354 119.114,190.211 118.561 C 190.105 118.149,190.067 118.182,190.041 118.710 M155.658 123.244 C 155.658 125.952,155.701 127.099,155.755 125.793 C 155.808 124.486,155.809 122.270,155.755 120.869 C 155.702 119.467,155.658 120.536,155.658 123.244 M134.226 125.127 C 134.226 128.074,134.269 129.280,134.322 127.806 C 134.374 126.332,134.374 123.921,134.322 122.448 C 134.269 120.974,134.226 122.180,134.226 125.127 M213.077 120.558 C 213.221 120.833,214.120 121.875,215.074 122.875 C 216.029 123.874,217.108 125.083,217.472 125.561 C 217.844 126.049,218.003 126.156,217.834 125.807 C 217.581 125.282,214.743 121.994,213.247 120.492 C 212.863 120.106,212.844 120.114,213.077 120.558 M250.657 124.258 C 250.657 126.408,250.702 127.288,250.758 126.213 C 250.814 125.138,250.814 123.378,250.758 122.303 C 250.702 121.227,250.657 122.107,250.657 124.258 M228.734 126.358 C 228.644 128.309,228.493 130.232,228.397 130.630 L 228.224 131.354 228.555 130.630 C 228.881 129.917,229.324 122.810,229.043 122.810 C 228.963 122.810,228.824 124.406,228.734 126.358 M196.282 124.541 C 196.377 125.095,196.629 126.073,196.842 126.714 C 197.211 127.824,197.221 127.831,197.056 126.871 C 196.961 126.317,196.709 125.339,196.496 124.698 C 196.127 123.588,196.117 123.581,196.282 124.541 M165.243 127.510 C 163.605 129.172,163.585 129.209,164.894 128.142 C 165.998 127.242,167.443 125.630,167.060 125.726 C 167.016 125.737,166.198 126.539,165.243 127.510 M187.690 127.444 C 187.495 128.258,187.393 128.981,187.463 129.051 C 187.534 129.122,187.746 128.509,187.935 127.689 C 188.124 126.869,188.226 126.146,188.162 126.081 C 188.098 126.017,187.885 126.630,187.690 127.444 M220.148 128.607 C 221.352 129.799,222.830 131.361,223.431 132.078 C 224.401 133.234,224.388 133.202,223.321 131.789 C 221.788 129.758,220.049 127.920,218.877 127.090 C 218.371 126.732,218.943 127.414,220.148 128.607 M197.293 128.313 C 197.293 128.552,197.534 129.399,197.828 130.196 C 198.122 130.992,198.362 131.448,198.362 131.209 C 198.362 130.970,198.122 130.123,197.828 129.327 C 197.534 128.530,197.293 128.074,197.293 128.313 M155.892 128.892 C 155.889 129.290,155.991 129.942,156.119 130.340 C 156.431 131.314,156.431 130.262,156.119 129.037 C 155.920 128.256,155.897 128.242,155.892 128.892 M162.062 130.558 C 161.440 131.314,161.231 131.673,161.598 131.354 C 162.245 130.791,163.503 129.182,163.296 129.182 C 163.239 129.182,162.684 129.801,162.062 130.558 M250.332 130.630 C 250.332 131.347,250.389 131.640,250.458 131.282 C 250.527 130.923,250.527 130.337,250.458 129.978 C 250.389 129.620,250.332 129.913,250.332 130.630 M134.517 132.745 C 134.568 134.124,134.746 135.141,134.975 135.352 C 135.269 135.625,135.301 135.615,135.125 135.304 C 135.001 135.087,134.795 133.914,134.667 132.697 L 134.434 130.485 134.517 132.745 M156.408 131.543 C 156.408 134.869,158.789 135.420,160.731 132.544 C 160.958 132.208,160.569 132.492,159.866 133.176 C 158.241 134.756,157.578 134.709,157.078 132.977 C 156.757 131.867,156.408 131.119,156.408 131.543 M227.944 132.102 C 227.941 132.328,227.677 133.089,227.357 133.793 L 226.776 135.073 225.698 134.083 L 224.620 133.092 225.612 134.172 C 226.352 134.977,226.697 135.174,226.972 134.945 C 227.456 134.544,228.377 132.119,228.137 131.879 C 228.035 131.776,227.948 131.877,227.944 132.102 M249.826 133.717 C 249.713 134.618,249.558 135.563,249.481 135.817 C 249.360 136.215,249.380 136.218,249.624 135.844 C 249.931 135.373,250.413 132.078,250.175 132.078 C 250.096 132.078,249.938 132.816,249.826 133.717 M186.403 133.687 C 186.294 134.269,186.262 134.802,186.333 134.873 C 186.404 134.944,186.551 134.526,186.660 133.945 C 186.769 133.364,186.801 132.830,186.730 132.759 C 186.659 132.688,186.512 133.106,186.403 133.687 M199.409 135.699 C 199.484 136.177,199.627 137.089,199.726 137.726 C 200.004 139.516,200.130 139.831,200.646 140.029 C 201.086 140.198,201.088 140.170,200.667 139.694 C 200.414 139.408,200.112 138.458,199.995 137.581 C 199.878 136.705,199.667 135.728,199.527 135.409 C 199.329 134.958,199.303 135.022,199.409 135.699 M248.248 140.500 C 248.042 141.303,247.929 142.016,247.997 142.083 C 248.064 142.150,248.287 141.548,248.493 140.745 C 248.699 139.942,248.812 139.230,248.745 139.163 C 248.678 139.095,248.454 139.697,248.248 140.500 M136.175 139.754 C 136.177 140.358,136.945 142.578,136.976 142.071 C 136.985 141.912,136.809 141.195,136.583 140.478 C 136.357 139.761,136.173 139.435,136.175 139.754 M220.420 139.886 C 222.571 139.972,224.168 140.148,223.970 140.277 C 223.771 140.405,223.467 140.796,223.292 141.146 C 223.076 141.579,223.210 141.505,223.715 140.912 C 224.818 139.616,224.789 139.604,220.492 139.669 L 216.510 139.728 220.420 139.886 M160.763 140.261 C 160.769 140.460,160.973 140.949,161.218 141.347 C 161.624 142.009,161.600 141.718,161.158 140.627 C 161.006 140.251,162.281 140.186,171.078 140.116 L 181.173 140.036 170.963 139.967 C 162.947 139.913,160.755 139.976,160.763 140.261 M182.409 140.109 C 182.930 140.173,183.712 140.172,184.147 140.106 C 184.582 140.039,184.156 139.987,183.201 139.988 C 182.245 139.990,181.889 140.044,182.409 140.109 M222.303 142.795 C 222.056 143.273,221.919 143.664,221.998 143.664 C 222.078 143.664,222.345 143.273,222.592 142.795 C 222.839 142.317,222.976 141.926,222.897 141.926 C 222.817 141.926,222.550 142.317,222.303 142.795 M162.450 143.258 C 162.965 143.911,163.979 144.888,164.704 145.430 C 165.428 145.972,166.474 147.031,167.027 147.784 C 167.580 148.536,168.643 149.550,169.389 150.037 C 170.135 150.523,170.370 150.625,169.910 150.262 C 169.451 149.899,168.604 149.093,168.028 148.471 C 165.283 145.506,161.254 141.741,162.450 143.258 M137.310 143.845 C 137.288 144.241,138.676 147.429,138.871 147.429 C 138.947 147.429,138.740 146.810,138.412 146.054 C 138.083 145.297,137.705 144.417,137.571 144.098 C 137.438 143.780,137.320 143.666,137.310 143.845 M220.741 144.839 C 220.360 145.157,220.110 145.478,220.185 145.553 C 220.260 145.628,220.627 145.364,221.000 144.966 C 221.813 144.101,221.696 144.044,220.741 144.839 M218.212 146.938 C 217.715 147.447,217.212 148.059,217.094 148.298 C 216.977 148.537,217.188 148.380,217.564 147.950 C 217.940 147.519,218.573 146.904,218.972 146.584 C 219.370 146.263,219.566 146.003,219.406 146.006 C 219.247 146.009,218.710 146.429,218.212 146.938 M246.245 146.718 C 245.760 147.783,245.853 148.010,246.377 147.042 C 246.623 146.590,246.769 146.165,246.703 146.099 C 246.636 146.033,246.431 146.311,246.245 146.718 M244.171 151.484 C 243.846 152.122,243.645 152.643,243.725 152.643 C 243.804 152.643,244.135 152.122,244.461 151.484 C 244.786 150.847,244.986 150.326,244.907 150.326 C 244.827 150.326,244.496 150.847,244.171 151.484 M212.831 151.453 C 210.916 152.544,210.714 152.860,212.507 151.959 C 213.332 151.545,214.089 151.073,214.189 150.911 C 214.417 150.542,214.463 150.524,212.831 151.453 M171.694 151.486 C 172.924 152.235,173.326 152.234,172.194 151.484 C 171.716 151.168,171.195 150.909,171.035 150.908 C 170.876 150.908,171.173 151.168,171.694 151.486 M141.406 152.913 C 141.766 153.540,142.111 154.003,142.172 153.942 C 142.297 153.817,141.080 151.774,140.880 151.774 C 140.809 151.774,141.045 152.287,141.406 152.913 M173.208 152.153 C 173.208 152.504,179.248 155.679,179.477 155.449 C 179.536 155.391,178.573 154.855,177.337 154.259 C 176.101 153.663,174.667 152.913,174.149 152.593 C 173.631 152.272,173.208 152.075,173.208 152.153 M208.108 154.029 C 206.673 154.780,205.109 155.553,204.632 155.746 C 203.949 156.022,203.919 156.064,204.490 155.942 C 205.620 155.700,211.622 152.595,210.847 152.653 C 210.776 152.658,209.543 153.277,208.108 154.029 M143.336 155.902 C 143.664 156.419,144.187 157.308,144.501 157.876 C 144.814 158.444,145.300 159.096,145.581 159.324 C 145.988 159.655,145.970 159.562,145.492 158.870 C 145.162 158.392,144.464 157.317,143.940 156.481 C 143.416 155.644,142.932 154.960,142.864 154.960 C 142.797 154.960,143.009 155.384,143.336 155.902 M200.434 156.698 C 199.461 157.010,200.513 157.010,201.738 156.698 C 202.518 156.499,202.533 156.476,201.883 156.472 C 201.484 156.469,200.833 156.570,200.434 156.698 M184.794 156.988 C 185.192 157.115,185.778 157.220,186.097 157.220 C 186.556 157.220,186.526 157.171,185.952 156.988 C 185.554 156.860,184.967 156.756,184.649 156.756 C 184.190 156.756,184.220 156.804,184.794 156.988 M191.528 157.781 C 192.444 157.839,193.943 157.839,194.859 157.781 C 195.775 157.724,195.025 157.677,193.193 157.677 C 191.361 157.677,190.612 157.724,191.528 157.781 M239.381 158.798 C 238.934 159.475,238.754 159.876,238.980 159.689 C 239.415 159.330,240.524 157.567,240.316 157.567 C 240.248 157.567,239.828 158.121,239.381 158.798 M146.143 160.174 C 146.373 160.580,148.633 163.458,149.201 164.070 C 149.342 164.221,149.457 164.260,149.457 164.157 C 149.457 164.054,148.785 163.148,147.964 162.144 C 146.232 160.027,145.785 159.544,146.143 160.174 M236.479 162.708 C 235.587 163.783,234.652 165.054,234.403 165.532 C 234.153 166.010,233.349 167.173,232.615 168.116 C 228.850 172.956,227.821 174.366,228.055 174.366 C 228.132 174.366,229.046 173.226,230.087 171.832 C 231.128 170.438,232.572 168.525,233.296 167.582 C 234.020 166.638,234.613 165.761,234.613 165.634 C 234.613 165.506,235.457 164.356,236.489 163.078 C 237.522 161.799,238.306 160.753,238.234 160.753 C 238.161 160.753,237.371 161.633,236.479 162.708 M149.751 164.597 C 149.743 164.990,151.096 166.944,152.204 168.139 L 153.278 169.298 152.148 167.849 C 151.526 167.053,150.733 165.945,150.387 165.387 C 150.040 164.830,149.754 164.474,149.751 164.597 M156.131 173.497 C 157.864 175.671,158.502 176.342,157.645 175.091 C 157.318 174.613,156.506 173.635,155.840 172.918 C 154.857 171.859,154.912 171.968,156.131 173.497 M158.726 176.973 C 159.066 177.451,159.409 177.842,159.489 177.842 C 159.569 177.842,159.356 177.451,159.015 176.973 C 158.675 176.495,158.331 176.104,158.252 176.104 C 158.172 176.104,158.385 176.495,158.726 176.973 M225.168 177.915 C 224.517 178.751,223.832 179.761,223.645 180.159 C 223.359 180.768,223.363 180.796,223.673 180.338 C 223.875 180.038,224.504 179.191,225.070 178.455 C 226.176 177.019,226.592 176.394,226.443 176.394 C 226.392 176.394,225.818 177.078,225.168 177.915 M159.997 178.711 C 162.446 182.385,163.117 183.345,163.236 183.345 C 163.446 183.345,161.298 180.091,160.351 178.974 C 159.891 178.431,159.732 178.313,159.997 178.711 M222.285 182.404 C 222.000 182.842,221.562 183.371,221.311 183.579 C 220.916 183.906,220.932 183.919,221.434 183.677 C 221.752 183.523,222.248 182.994,222.536 182.502 C 223.185 181.393,222.992 181.318,222.285 182.404 M164.821 185.301 C 165.671 186.217,166.426 187.031,166.499 187.111 C 166.572 187.190,166.514 187.042,166.371 186.781 C 166.032 186.162,163.691 183.635,163.457 183.635 C 163.357 183.635,163.971 184.385,164.821 185.301 M219.884 185.047 C 219.096 185.902,217.962 187.690,218.208 187.690 C 218.283 187.690,218.646 187.201,219.014 186.604 C 219.383 186.007,219.999 185.224,220.384 184.866 C 220.769 184.508,220.987 184.214,220.868 184.214 C 220.749 184.214,220.307 184.589,219.884 185.047 M166.972 188.254 C 167.215 188.723,167.707 189.441,168.066 189.849 C 168.425 190.257,169.172 191.233,169.727 192.018 C 170.282 192.803,170.779 193.401,170.833 193.348 C 170.933 193.248,169.252 190.858,168.415 189.911 C 168.158 189.619,167.684 188.935,167.362 188.390 C 166.647 187.178,166.365 187.079,166.972 188.254 M216.884 189.356 C 216.643 189.634,215.975 190.579,215.401 191.455 C 214.827 192.332,214.010 193.505,213.586 194.062 L 212.815 195.076 213.731 194.062 C 214.552 193.155,217.580 188.849,217.397 188.849 C 217.357 188.849,217.126 189.077,216.884 189.356 M172.364 195.690 C 172.748 196.186,173.121 196.541,173.192 196.477 C 173.264 196.414,172.949 196.007,172.493 195.574 L 171.665 194.786 172.364 195.690 M212.021 195.944 C 211.648 196.341,211.397 196.715,211.464 196.775 C 211.531 196.834,211.889 196.509,212.260 196.052 C 213.089 195.029,212.943 194.963,212.021 195.944 M174.117 197.767 C 174.493 198.291,175.093 199.138,175.449 199.650 C 177.217 202.184,178.500 203.910,178.616 203.910 C 178.815 203.910,178.421 203.298,177.406 202.028 C 176.896 201.390,176.267 200.478,176.007 200.000 C 175.747 199.522,175.061 198.610,174.484 197.972 C 173.638 197.040,173.566 197.000,174.117 197.767 M210.644 197.610 C 210.485 197.810,210.148 198.364,209.896 198.841 C 209.644 199.319,209.026 200.167,208.523 200.724 C 208.020 201.282,207.046 202.585,206.358 203.621 C 205.671 204.656,204.701 205.959,204.204 206.517 C 203.403 207.415,202.263 209.132,202.954 208.400 C 203.754 207.551,205.926 204.757,206.668 203.621 C 207.136 202.904,208.052 201.665,208.704 200.869 C 209.356 200.072,210.169 198.932,210.511 198.335 C 211.131 197.250,211.190 196.925,210.644 197.610 M180.883 207.096 C 181.506 207.734,182.080 208.255,182.160 208.255 C 182.239 208.255,181.795 207.734,181.173 207.096 C 180.551 206.459,179.977 205.938,179.897 205.938 C 179.817 205.938,180.261 206.459,180.883 207.096 M182.857 209.680 C 183.201 210.308,183.526 210.777,183.580 210.724 C 183.720 210.583,182.822 208.903,182.501 208.704 C 182.353 208.613,182.513 209.052,182.857 209.680 M201.406 210.500 C 200.386 211.783,199.820 212.779,200.707 211.731 C 201.623 210.649,202.517 209.413,202.385 209.413 C 202.322 209.413,201.881 209.902,201.406 210.500 M185.197 212.433 C 185.976 213.175,186.888 213.914,187.224 214.076 C 187.560 214.237,187.444 214.069,186.966 213.702 C 186.488 213.335,185.576 212.596,184.938 212.060 C 184.175 211.417,184.263 211.545,185.197 212.433 M188.559 214.772 C 188.957 215.000,189.413 215.186,189.573 215.186 C 189.732 215.186,189.537 215.000,189.138 214.772 C 188.740 214.544,188.284 214.358,188.125 214.358 C 187.965 214.358,188.161 214.544,188.559 214.772 M195.221 215.080 C 194.576 215.324,194.418 215.466,194.786 215.469 C 195.105 215.473,195.692 215.289,196.090 215.062 C 196.975 214.556,196.584 214.564,195.221 215.080 M190.659 215.414 C 191.097 215.480,191.814 215.480,192.252 215.414 C 192.690 215.347,192.332 215.293,191.455 215.293 C 190.579 215.293,190.221 215.347,190.659 215.414 M207.607 226.707 C 207.967 226.777,208.488 226.774,208.765 226.702 C 209.042 226.629,208.747 226.572,208.110 226.576 C 207.473 226.579,207.246 226.638,207.607 226.707 M211.642 229.004 C 211.854 230.416,211.973 231.799,211.906 232.078 C 211.839 232.357,211.921 232.585,212.087 232.585 C 212.279 232.585,212.322 232.098,212.204 231.241 C 212.103 230.502,212.020 229.354,212.020 228.690 C 212.020 228.026,211.848 227.247,211.638 226.960 C 211.323 226.528,211.324 226.885,211.642 229.004 M256.119 226.702 C 256.398 226.775,256.854 226.775,257.133 226.702 C 257.411 226.629,257.183 226.570,256.626 226.570 C 256.068 226.570,255.840 226.629,256.119 226.702 M200.072 227.006 C 200.909 227.064,202.277 227.064,203.114 227.006 C 203.950 226.947,203.266 226.899,201.593 226.899 C 199.920 226.899,199.236 226.947,200.072 227.006 M217.296 227.350 C 219.896 227.713,221.102 230.210,219.501 231.915 C 219.154 232.283,218.954 232.585,219.055 232.585 C 219.156 232.585,219.505 232.300,219.829 231.951 C 221.496 230.162,219.764 227.038,217.151 227.121 L 215.930 227.159 217.296 227.350 M259.026 228.965 C 259.028 229.761,259.084 230.053,259.151 229.612 C 259.217 229.172,259.215 228.520,259.147 228.164 C 259.078 227.808,259.023 228.168,259.026 228.965 M258.780 239.247 C 258.780 243.628,258.820 245.420,258.870 243.230 C 258.919 241.039,258.919 237.455,258.870 235.264 C 258.820 233.074,258.780 234.866,258.780 239.247 M203.553 232.216 C 204.074 232.280,204.856 232.279,205.291 232.213 C 205.726 232.147,205.301 232.094,204.345 232.096 C 203.389 232.097,203.033 232.151,203.553 232.216 M201.998 232.702 C 201.912 232.926,201.887 233.545,201.943 234.078 C 202.032 234.928,202.061 234.878,202.183 233.671 C 202.325 232.260,202.273 231.987,201.998 232.702 M208.475 232.500 C 208.836 232.570,209.357 232.567,209.634 232.494 C 209.911 232.422,209.616 232.365,208.979 232.368 C 208.342 232.372,208.115 232.431,208.475 232.500 M117.161 234.047 C 116.758 234.230,116.933 234.256,117.741 234.133 C 118.378 234.036,118.954 233.909,119.020 233.850 C 119.269 233.631,117.718 233.795,117.161 234.047 M121.688 234.165 C 122.425 234.368,123.195 234.637,123.398 234.763 C 123.636 234.910,123.696 234.876,123.568 234.668 C 123.356 234.324,121.511 233.730,120.782 233.771 C 120.543 233.785,120.951 233.962,121.688 234.165 M134.571 234.155 C 135.225 234.359,135.909 234.619,136.092 234.732 C 136.274 234.844,136.423 234.857,136.423 234.760 C 136.423 234.500,134.499 233.740,133.898 233.763 C 133.614 233.774,133.917 233.950,134.571 234.155 M139.754 234.198 C 140.550 234.420,141.332 234.590,141.492 234.577 C 141.982 234.535,139.501 233.788,138.885 233.792 C 138.566 233.794,138.957 233.977,139.754 234.198 M150.534 233.932 C 150.993 234.032,151.229 234.355,151.362 235.066 C 151.465 235.613,151.658 236.061,151.791 236.061 C 152.435 236.061,151.257 233.887,150.588 233.841 C 149.955 233.798,149.950 233.806,150.534 233.932 M154.743 234.042 C 153.740 234.445,153.971 234.623,155.033 234.265 C 155.550 234.090,156.028 233.901,156.095 233.845 C 156.330 233.647,155.385 233.784,154.743 234.042 M157.567 233.908 C 158.858 234.415,159.707 234.609,159.434 234.336 C 159.273 234.176,158.690 233.975,158.137 233.891 C 157.585 233.807,157.328 233.815,157.567 233.908 M168.537 234.177 C 169.233 234.395,170.195 234.940,170.674 235.389 C 171.390 236.060,171.488 236.094,171.223 235.582 C 170.866 234.891,168.705 233.733,167.830 233.763 C 167.522 233.774,167.840 233.960,168.537 234.177 M180.283 234.199 C 180.534 234.449,180.739 234.840,180.739 235.068 C 180.739 235.295,180.865 235.482,181.019 235.482 C 181.321 235.482,181.115 234.696,180.658 234.106 C 180.504 233.907,180.254 233.744,180.103 233.744 C 179.952 233.744,180.033 233.948,180.283 234.199 M183.418 234.042 C 182.415 234.445,182.646 234.623,183.707 234.265 C 184.225 234.090,184.703 233.901,184.769 233.845 C 185.005 233.647,184.059 233.784,183.418 234.042 M187.148 234.165 C 187.885 234.368,188.654 234.637,188.858 234.763 C 189.095 234.910,189.156 234.876,189.028 234.668 C 188.815 234.324,186.971 233.730,186.242 233.771 C 186.003 233.785,186.410 233.962,187.148 234.165 M227.878 233.934 C 228.269 234.017,228.530 234.288,228.530 234.609 C 228.530 235.378,228.834 236.061,229.176 236.061 C 229.373 236.061,229.372 235.942,229.173 235.699 C 229.009 235.500,228.830 235.011,228.775 234.613 C 228.701 234.077,228.487 233.876,227.951 233.841 C 227.313 233.799,227.304 233.810,227.878 233.934 M235.657 234.155 C 236.311 234.359,236.995 234.619,237.178 234.732 C 237.360 234.844,237.509 234.857,237.509 234.760 C 237.509 234.500,235.585 233.740,234.984 233.763 C 234.700 233.774,235.003 233.950,235.657 234.155 M249.385 233.805 C 249.464 233.883,249.983 234.101,250.536 234.288 C 251.090 234.475,251.416 234.504,251.261 234.351 C 251.105 234.199,250.587 233.982,250.109 233.868 C 249.631 233.755,249.305 233.726,249.385 233.805 M272.266 233.848 C 272.266 233.924,272.705 234.257,273.242 234.589 C 274.378 235.291,275.691 237.161,276.209 238.812 C 276.409 239.450,276.581 239.739,276.592 239.455 C 276.645 238.047,274.748 235.158,273.164 234.234 C 272.670 233.946,272.266 233.773,272.266 233.848 M283.680 234.129 C 283.775 234.421,283.852 234.910,283.852 235.216 C 283.852 235.795,284.557 235.982,284.864 235.485 C 284.965 235.321,284.849 235.272,284.591 235.371 C 284.285 235.488,284.141 235.372,284.137 235.006 C 284.135 234.710,283.992 234.272,283.821 234.033 C 283.561 233.672,283.537 233.688,283.680 234.129 M148.154 234.323 C 147.365 234.524,147.352 234.545,148.009 234.558 C 148.407 234.566,148.993 234.460,149.312 234.323 C 150.026 234.016,149.360 234.016,148.154 234.323 M215.996 234.242 C 216.511 234.306,217.423 234.307,218.024 234.245 C 218.625 234.182,218.204 234.130,217.089 234.128 C 215.974 234.127,215.482 234.178,215.996 234.242 M220.096 234.685 C 219.904 238.356,219.739 249.889,219.880 249.733 C 220.069 249.524,220.417 234.033,220.233 234.033 C 220.176 234.033,220.115 234.327,220.096 234.685 M225.344 234.323 C 224.771 234.507,224.740 234.555,225.199 234.555 C 225.518 234.555,226.104 234.451,226.503 234.323 C 227.076 234.139,227.106 234.091,226.647 234.091 C 226.329 234.091,225.742 234.195,225.344 234.323 M288.279 234.234 L 289.375 234.359 289.293 237.310 L 289.211 240.261 287.299 240.406 C 284.428 240.623,284.420 240.637,284.495 245.293 L 284.558 249.240 284.645 245.329 C 284.747 240.742,284.776 240.695,287.523 240.695 C 289.704 240.695,289.713 240.679,289.586 236.785 L 289.500 234.178 288.342 234.144 L 287.183 234.109 288.279 234.234 M160.488 235.371 C 160.873 235.868,161.246 236.222,161.317 236.159 C 161.388 236.095,161.074 235.689,160.618 235.256 L 159.789 234.468 160.488 235.371 M124.076 235.101 C 124.182 235.289,124.131 236.056,123.964 236.805 C 123.796 237.553,123.714 238.220,123.781 238.287 C 123.848 238.354,124.063 237.740,124.260 236.922 C 124.546 235.730,124.544 235.367,124.250 235.096 C 123.970 234.837,123.929 234.838,124.076 235.101 M142.862 235.771 C 142.862 236.329,142.922 236.557,142.995 236.278 C 143.068 235.999,143.068 235.543,142.995 235.264 C 142.922 234.986,142.862 235.214,142.862 235.771 M190.864 236.278 C 191.402 236.955,191.894 237.509,191.958 237.509 C 192.163 237.509,190.922 235.879,190.394 235.456 C 190.114 235.231,190.326 235.601,190.864 236.278 M207.531 235.364 C 208.888 235.582,210.796 235.609,210.672 235.409 C 210.598 235.290,209.731 235.210,208.745 235.231 C 207.758 235.253,207.212 235.313,207.531 235.364 M203.552 235.686 C 203.912 235.756,204.433 235.753,204.710 235.681 C 204.987 235.608,204.692 235.551,204.055 235.555 C 203.418 235.558,203.191 235.617,203.552 235.686 M238.662 236.279 C 238.870 236.707,238.950 239.156,238.895 243.420 C 238.850 246.989,238.910 249.849,239.030 249.775 C 239.498 249.484,239.280 236.792,238.796 236.189 C 238.364 235.649,238.359 235.652,238.662 236.279 M210.852 238.378 L 210.717 240.840 209.703 241.019 L 208.689 241.198 209.770 241.236 C 211.079 241.282,211.226 240.912,211.084 237.937 L 210.988 235.916 210.852 238.378 M142.573 237.799 C 142.573 238.356,142.632 238.584,142.705 238.306 C 142.778 238.027,142.778 237.571,142.705 237.292 C 142.632 237.013,142.573 237.241,142.573 237.799 M171.846 238.957 C 171.846 239.833,171.901 240.192,171.967 239.754 C 172.033 239.316,172.033 238.599,171.967 238.161 C 171.901 237.723,171.846 238.081,171.846 238.957 M266.784 238.272 C 266.454 238.692,266.192 239.246,266.202 239.503 C 266.213 239.786,266.334 239.687,266.507 239.253 C 266.665 238.858,267.003 238.304,267.258 238.022 C 267.513 237.740,267.646 237.509,267.553 237.509 C 267.460 237.509,267.114 237.852,266.784 238.272 M192.195 238.233 C 192.939 240.426,193.063 243.457,192.477 245.185 L 192.281 245.764 192.665 245.185 C 193.278 244.259,193.179 239.608,192.523 238.523 C 192.234 238.045,192.086 237.915,192.195 238.233 M247.778 239.958 C 247.387 240.349,247.073 240.903,247.080 241.189 C 247.089 241.537,247.210 241.437,247.444 240.888 C 247.637 240.436,248.120 239.887,248.517 239.667 C 248.915 239.447,249.071 239.263,248.864 239.257 C 248.658 239.252,248.169 239.567,247.778 239.958 M131.520 240.300 C 130.781 241.239,130.746 242.926,131.448 243.766 C 132.021 244.452,133.212 245.161,133.428 244.945 C 133.506 244.867,133.303 244.718,132.977 244.615 C 131.353 244.099,130.705 241.704,131.810 240.300 C 132.140 239.880,132.345 239.537,132.265 239.537 C 132.185 239.537,131.850 239.880,131.520 240.300 M151.964 240.066 C 151.553 240.520,151.493 241.278,151.543 245.352 L 151.602 250.109 151.760 245.300 C 151.874 241.844,152.031 240.358,152.316 240.014 C 152.858 239.363,152.561 239.407,151.964 240.066 M162.101 240.066 C 161.691 240.520,161.630 241.278,161.681 245.352 L 161.739 250.109 161.898 245.300 C 162.012 241.844,162.168 240.358,162.454 240.014 C 162.996 239.363,162.698 239.407,162.101 240.066 M229.362 240.014 C 228.933 240.530,228.475 250.034,228.892 249.775 C 229.012 249.701,229.109 247.656,229.109 245.232 C 229.109 241.711,229.200 240.694,229.560 240.180 C 230.085 239.432,229.945 239.314,229.362 240.014 M181.298 240.893 C 181.135 241.321,181.040 241.931,181.088 242.250 C 181.136 242.577,181.307 242.239,181.482 241.472 C 181.826 239.961,181.747 239.712,181.298 240.893 M117.499 240.599 C 116.540 241.558,117.803 244.506,119.334 244.881 C 119.844 245.006,119.738 244.883,118.976 244.465 C 117.799 243.820,117.461 243.043,117.651 241.418 C 117.780 240.315,117.780 240.318,117.499 240.599 M202.006 241.370 C 201.925 241.582,201.898 242.918,201.946 244.339 L 202.032 246.923 202.175 243.953 C 202.316 241.008,202.291 240.628,202.006 241.370 M181.328 243.243 C 181.323 243.449,181.638 243.938,182.029 244.329 C 182.420 244.720,182.909 245.035,183.115 245.030 C 183.321 245.024,183.179 244.847,182.798 244.636 C 182.417 244.425,181.933 243.940,181.722 243.560 C 181.511 243.179,181.334 243.036,181.328 243.243 M248.155 244.388 C 248.531 244.747,248.993 245.036,249.183 245.031 C 249.374 245.026,249.269 244.878,248.950 244.701 C 248.631 244.524,248.169 244.235,247.922 244.058 C 247.675 243.881,247.780 244.030,248.155 244.388 M266.474 243.976 C 266.474 244.187,266.832 244.676,267.270 245.062 L 268.067 245.764 267.350 244.952 C 266.746 244.268,266.701 244.098,267.060 243.870 C 267.419 243.644,267.406 243.600,266.980 243.596 C 266.702 243.594,266.474 243.764,266.474 243.976 M142.603 246.778 C 142.603 247.972,142.654 248.461,142.716 247.864 C 142.779 247.266,142.779 246.289,142.716 245.692 C 142.654 245.094,142.603 245.583,142.603 246.778 M123.789 246.416 C 123.888 246.933,124.041 247.737,124.131 248.202 C 124.251 248.827,124.157 249.125,123.769 249.351 C 123.480 249.519,123.391 249.660,123.571 249.665 C 124.471 249.690,124.645 246.452,123.787 245.641 C 123.690 245.549,123.691 245.898,123.789 246.416 M171.855 247.502 C 171.856 248.617,171.908 249.038,171.971 248.437 C 172.034 247.836,172.033 246.923,171.969 246.409 C 171.905 245.895,171.853 246.387,171.855 247.502 M275.447 246.766 C 276.191 248.224,276.237 248.070,274.801 248.931 C 273.482 249.721,273.507 249.946,274.836 249.259 C 276.283 248.511,276.428 248.122,275.753 246.800 C 275.422 246.150,275.086 245.619,275.006 245.619 C 274.927 245.619,275.125 246.135,275.447 246.766 M269.442 246.108 C 269.721 246.181,270.177 246.181,270.456 246.108 C 270.735 246.036,270.507 245.976,269.949 245.976 C 269.392 245.976,269.164 246.036,269.442 246.108 M191.195 247.379 C 190.833 247.870,189.935 248.652,189.201 249.117 C 187.796 250.008,187.740 250.253,189.102 249.548 C 190.110 249.027,192.468 246.488,191.944 246.488 C 191.895 246.488,191.558 246.889,191.195 247.379 M155.613 248.371 C 155.616 249.008,155.675 249.235,155.744 248.874 C 155.814 248.514,155.811 247.993,155.738 247.716 C 155.666 247.439,155.609 247.734,155.613 248.371 M258.888 248.950 C 258.823 249.508,258.874 249.964,259.001 249.964 C 259.128 249.964,259.232 249.508,259.232 248.950 C 259.232 248.392,259.182 247.936,259.119 247.936 C 259.057 247.936,258.953 248.392,258.888 248.950 M135.438 249.115 C 134.817 249.582,134.449 249.964,134.620 249.964 C 134.790 249.964,135.320 249.636,135.796 249.235 C 136.409 248.720,136.705 248.614,136.809 248.873 C 136.899 249.097,136.965 249.043,136.979 248.733 C 137.010 248.054,136.770 248.113,135.438 249.115 M202.240 249.095 C 202.240 249.652,202.299 249.881,202.372 249.602 C 202.445 249.323,202.445 248.867,202.372 248.588 C 202.299 248.309,202.240 248.537,202.240 249.095 M252.701 248.539 C 252.594 248.711,252.098 249.102,251.598 249.407 C 251.097 249.712,250.841 249.962,251.028 249.963 C 251.215 249.963,251.758 249.635,252.236 249.233 C 253.018 248.575,253.118 248.553,253.239 249.016 C 253.341 249.410,253.380 249.379,253.406 248.878 C 253.441 248.196,253.034 248.001,252.701 248.539 M181.119 252.086 C 181.122 253.811,181.206 255.049,181.305 254.838 C 181.405 254.626,181.402 253.215,181.299 251.702 L 181.113 248.950 181.119 252.086 M137.944 250.171 C 138.382 250.238,139.098 250.238,139.537 250.171 C 139.975 250.105,139.616 250.051,138.740 250.051 C 137.864 250.051,137.505 250.105,137.944 250.171 " stroke="none" fill="#9da7b0" fill-rule="evenodd"></path><path id="path3" d="M190.959 66.543 C 191.881 66.601,193.315 66.600,194.145 66.542 C 194.976 66.484,194.222 66.436,192.469 66.437 C 190.717 66.438,190.037 66.485,190.959 66.543 M187.762 87.383 C 188.041 87.456,188.497 87.456,188.776 87.383 C 189.055 87.310,188.827 87.250,188.269 87.250 C 187.712 87.250,187.484 87.310,187.762 87.383 M220.408 100.000 C 221.118 100.757,221.737 101.376,221.784 101.376 C 222.001 101.376,221.771 101.116,220.492 99.915 L 219.117 98.624 220.408 100.000 M189.555 100.579 L 188.704 101.521 189.645 100.670 C 190.163 100.202,190.587 99.778,190.587 99.729 C 190.587 99.505,190.348 99.702,189.555 100.579 M200.434 107.259 C 200.434 107.309,200.858 107.733,201.376 108.201 L 202.317 109.051 201.466 108.110 C 200.673 107.233,200.434 107.036,200.434 107.259 M179.417 112.165 L 178.566 113.106 179.508 112.256 C 180.025 111.788,180.449 111.364,180.449 111.314 C 180.449 111.091,180.210 111.288,179.417 112.165 M207.374 114.772 C 208.084 115.529,208.703 116.148,208.750 116.148 C 208.967 116.148,208.737 115.888,207.458 114.687 L 206.083 113.396 207.374 114.772 M249.448 113.975 C 249.451 114.294,249.553 114.946,249.674 115.424 C 249.873 116.204,249.896 116.219,249.901 115.568 C 249.904 115.170,249.802 114.518,249.674 114.120 C 249.492 113.553,249.443 113.521,249.448 113.975 M209.703 117.451 C 210.244 118.009,210.751 118.465,210.831 118.465 C 210.910 118.465,210.533 118.009,209.993 117.451 C 209.452 116.894,208.945 116.437,208.865 116.437 C 208.786 116.437,209.163 116.894,209.703 117.451 M172.034 120.420 L 171.035 121.506 172.122 120.508 C 173.133 119.579,173.341 119.334,173.120 119.334 C 173.071 119.334,172.583 119.823,172.034 120.420 M229.177 120.203 C 229.177 120.760,229.236 120.988,229.309 120.710 C 229.382 120.431,229.382 119.975,229.309 119.696 C 229.236 119.417,229.177 119.645,229.177 120.203 M155.349 123.244 C 155.350 124.518,155.401 125.004,155.462 124.323 C 155.523 123.641,155.523 122.599,155.460 122.005 C 155.398 121.412,155.348 121.970,155.349 123.244 M229.207 124.547 C 229.207 125.742,229.258 126.231,229.320 125.634 C 229.383 125.036,229.383 124.059,229.320 123.461 C 229.258 122.864,229.207 123.353,229.207 124.547 M134.752 133.237 C 134.752 133.794,134.812 134.022,134.885 133.744 C 134.958 133.465,134.958 133.009,134.885 132.730 C 134.812 132.451,134.752 132.679,134.752 133.237 M167.072 139.826 C 170.468 139.872,175.943 139.872,179.237 139.826 C 182.532 139.779,179.754 139.741,173.063 139.742 C 166.372 139.742,163.676 139.780,167.072 139.826 M203.999 139.825 C 205.880 139.876,208.878 139.876,210.661 139.825 C 212.444 139.774,210.905 139.733,207.241 139.733 C 203.577 139.733,202.118 139.775,203.999 139.825 M188.631 157.767 C 188.910 157.839,189.366 157.839,189.645 157.767 C 189.924 157.694,189.696 157.634,189.138 157.634 C 188.581 157.634,188.353 157.694,188.631 157.767 M179.870 205.739 C 179.870 205.789,180.293 206.212,180.811 206.680 L 181.752 207.531 180.902 206.589 C 180.109 205.712,179.870 205.515,179.870 205.739 M209.634 226.707 C 209.994 226.777,210.516 226.774,210.793 226.702 C 211.070 226.629,210.775 226.572,210.138 226.576 C 209.500 226.579,209.274 226.638,209.634 226.707 M196.017 227.002 C 196.535 227.066,197.382 227.066,197.900 227.002 C 198.418 226.937,197.994 226.885,196.959 226.885 C 195.923 226.885,195.500 226.937,196.017 227.002 M205.145 227.000 C 205.585 227.067,206.237 227.065,206.593 226.996 C 206.950 226.927,206.589 226.873,205.793 226.875 C 204.996 226.877,204.705 226.933,205.145 227.000 M253.003 227.154 C 252.774 227.798,252.708 235.722,252.933 235.582 C 253.052 235.508,253.150 233.572,253.150 231.280 L 253.150 227.114 254.526 227.005 L 255.902 226.897 254.517 226.844 C 253.630 226.811,253.085 226.922,253.003 227.154 M195.311 229.833 C 195.312 230.789,195.366 231.145,195.431 230.625 C 195.495 230.104,195.494 229.322,195.428 228.887 C 195.362 228.452,195.309 228.878,195.311 229.833 M206.445 232.210 C 206.803 232.279,207.390 232.279,207.748 232.210 C 208.106 232.141,207.813 232.085,207.096 232.085 C 206.379 232.085,206.086 232.141,206.445 232.210 M210.355 232.495 C 210.634 232.568,211.090 232.568,211.369 232.495 C 211.647 232.422,211.419 232.363,210.862 232.363 C 210.304 232.363,210.076 232.422,210.355 232.495 M195.628 239.102 C 195.628 241.651,195.672 242.655,195.726 241.333 C 195.780 240.011,195.780 237.926,195.726 236.699 C 195.671 235.472,195.627 236.553,195.628 239.102 M113.815 236.278 L 112.817 237.364 113.903 236.366 C 114.914 235.437,115.122 235.192,114.901 235.192 C 114.853 235.192,114.364 235.681,113.815 236.278 M127.570 236.133 L 126.720 237.075 127.661 236.224 C 128.539 235.431,128.736 235.192,128.512 235.192 C 128.462 235.192,128.038 235.615,127.570 236.133 M205.720 235.689 C 206.159 235.755,206.875 235.755,207.314 235.689 C 207.752 235.623,207.393 235.568,206.517 235.568 C 205.641 235.568,205.282 235.623,205.720 235.689 M214.127 236.930 C 214.127 237.647,214.183 237.940,214.252 237.581 C 214.321 237.223,214.321 236.636,214.252 236.278 C 214.183 235.920,214.127 236.213,214.127 236.930 M145.759 238.088 C 145.759 238.646,145.818 238.874,145.891 238.595 C 145.964 238.316,145.964 237.860,145.891 237.581 C 145.818 237.303,145.759 237.531,145.759 238.088 M175.308 238.233 C 175.312 238.870,175.371 239.097,175.440 238.737 C 175.509 238.376,175.507 237.855,175.434 237.578 C 175.362 237.301,175.305 237.596,175.308 238.233 M125.980 238.563 C 125.821 238.983,125.744 239.381,125.809 239.447 C 125.875 239.512,126.067 239.168,126.237 238.682 C 126.613 237.602,126.386 237.496,125.980 238.563 M134.685 239.164 C 134.924 239.253,135.380 239.445,135.699 239.592 C 136.269 239.854,136.269 239.851,135.716 239.408 C 135.407 239.160,134.950 238.968,134.702 238.980 C 134.312 239.000,134.310 239.025,134.685 239.164 M164.518 239.163 C 164.757 239.251,165.214 239.534,165.532 239.792 C 166.107 240.257,166.107 240.255,165.560 239.609 C 165.256 239.251,164.800 238.968,164.546 238.980 C 164.154 239.000,164.150 239.027,164.518 239.163 M184.504 239.164 C 184.743 239.253,185.199 239.445,185.518 239.592 C 186.088 239.854,186.088 239.851,185.535 239.408 C 185.226 239.160,184.769 238.968,184.521 238.980 C 184.131 239.000,184.129 239.025,184.504 239.164 M278.695 244.226 C 278.664 247.204,278.736 249.701,278.856 249.775 C 278.975 249.849,279.039 248.260,278.998 246.244 C 278.859 239.479,278.753 238.772,278.695 244.226 M261.065 241.709 C 261.067 242.824,261.119 243.245,261.182 242.644 C 261.244 242.043,261.243 241.130,261.179 240.616 C 261.115 240.102,261.064 240.594,261.065 241.709 M125.509 242.143 C 125.509 243.179,125.562 243.602,125.626 243.085 C 125.690 242.567,125.690 241.720,125.626 241.202 C 125.562 240.684,125.509 241.108,125.509 242.143 M155.924 242.288 C 155.925 243.403,155.978 243.824,156.040 243.223 C 156.103 242.622,156.102 241.710,156.038 241.196 C 155.974 240.681,155.923 241.173,155.924 242.288 M241.075 241.999 C 241.076 242.954,241.130 243.310,241.195 242.790 C 241.259 242.269,241.258 241.487,241.192 241.052 C 241.126 240.617,241.073 241.043,241.075 241.999 M166.100 245.161 C 166.110 249.006,166.184 249.791,166.546 249.890 C 166.859 249.975,166.882 249.938,166.626 249.756 C 166.381 249.582,166.244 248.134,166.180 245.028 L 166.088 240.550 166.100 245.161 M204.127 240.910 C 205.123 240.966,206.752 240.966,207.748 240.910 C 208.744 240.853,207.929 240.807,205.938 240.807 C 203.946 240.807,203.132 240.853,204.127 240.910 M261.283 244.403 C 261.257 244.821,262.061 246.488,262.289 246.488 C 262.368 246.488,262.252 246.130,262.031 245.692 C 261.810 245.253,261.556 244.699,261.467 244.461 C 261.359 244.169,261.298 244.150,261.283 244.403 M155.926 247.647 C 155.926 248.841,155.978 249.330,156.040 248.733 C 156.103 248.135,156.103 247.158,156.040 246.560 C 155.978 245.963,155.926 246.452,155.926 247.647 M214.131 248.081 C 214.133 248.878,214.189 249.169,214.256 248.729 C 214.322 248.289,214.320 247.637,214.252 247.281 C 214.183 246.924,214.128 247.285,214.131 248.081 M198.624 250.173 C 199.142 250.238,199.989 250.238,200.507 250.173 C 201.025 250.109,200.601 250.057,199.566 250.057 C 198.530 250.057,198.106 250.109,198.624 250.173 " stroke="none" fill="#945e36" fill-rule="evenodd"></path><path id="path4" d="M195.010 228.240 C 195.010 228.957,195.067 229.251,195.136 228.892 C 195.205 228.534,195.205 227.947,195.136 227.589 C 195.067 227.230,195.010 227.524,195.010 228.240 M252.660 228.675 C 252.662 229.631,252.716 229.987,252.781 229.466 C 252.845 228.946,252.844 228.164,252.778 227.728 C 252.711 227.293,252.659 227.719,252.660 228.675 M195.311 233.020 C 195.312 233.975,195.366 234.331,195.431 233.811 C 195.495 233.290,195.494 232.508,195.428 232.073 C 195.362 231.638,195.309 232.064,195.311 233.020 M263.124 235.554 L 262.274 236.495 263.215 235.645 C 263.733 235.177,264.156 234.753,264.156 234.703 C 264.156 234.479,263.917 234.676,263.124 235.554 M213.831 235.916 C 213.834 236.553,213.894 236.780,213.963 236.420 C 214.032 236.059,214.030 235.538,213.957 235.261 C 213.885 234.984,213.828 235.279,213.831 235.916 M214.164 242.433 C 214.164 244.902,214.209 245.912,214.263 244.678 C 214.317 243.443,214.317 241.423,214.263 240.188 C 214.209 238.954,214.164 239.964,214.164 242.433 M278.422 239.102 C 278.425 239.739,278.485 239.966,278.554 239.606 C 278.623 239.245,278.621 238.724,278.548 238.447 C 278.476 238.170,278.419 238.465,278.422 239.102 M145.813 244.461 C 145.813 247.567,145.855 248.838,145.907 247.285 C 145.960 245.731,145.960 243.190,145.907 241.636 C 145.855 240.083,145.813 241.354,145.813 244.461 M175.296 246.978 C 175.263 251.309,175.333 254.914,175.453 254.988 C 175.572 255.062,175.636 252.757,175.596 249.864 C 175.457 240.046,175.357 239.080,175.296 246.978 M223.083 244.516 C 223.052 247.334,223.125 249.701,223.244 249.775 C 223.364 249.849,223.427 248.325,223.386 246.389 C 223.249 239.995,223.139 239.319,223.083 244.516 M165.750 241.130 C 165.753 241.767,165.813 241.993,165.882 241.633 C 165.951 241.273,165.949 240.751,165.876 240.475 C 165.804 240.198,165.747 240.492,165.750 241.130 M111.307 242.288 C 111.309 243.085,111.365 243.376,111.432 242.936 C 111.498 242.496,111.496 241.844,111.428 241.488 C 111.359 241.131,111.304 241.492,111.307 242.288 M233.277 244.605 C 233.277 246.676,233.324 247.486,233.379 246.404 C 233.435 245.322,233.435 243.627,233.379 242.638 C 233.322 241.649,233.276 242.534,233.277 244.605 M195.329 246.633 C 195.330 248.385,195.378 249.065,195.435 248.143 C 195.493 247.221,195.492 245.787,195.434 244.957 C 195.376 244.126,195.329 244.881,195.329 246.633 M165.770 247.647 C 165.770 248.682,165.822 249.106,165.887 248.588 C 165.951 248.070,165.951 247.223,165.887 246.705 C 165.822 246.188,165.770 246.611,165.770 247.647 " stroke="none" fill="#e5a452" fill-rule="evenodd"></path></g></svg>